<?xml version="1.0" standalone="no"?><!DOCTYPE svg PUBLIC "-//W3C//DTD SVG 1.1//EN" "http://www.w3.org/Graphics/SVG/1.1/DTD/svg11.dtd"><svg t="1629173914924" class="icon" viewBox="0 0 1024 1024" version="1.1" xmlns="http://www.w3.org/2000/svg" p-id="3523" width="16" height="16" xmlns:xlink="http://www.w3.org/1999/xlink"><defs><style type="text/css"></style></defs><path d="M898.74 147.08h16v16h-16z" fill="#FCEE21" p-id="3524"></path><path d="M899.39 147.73h14.7v14.7h-14.7z" fill="#FFFFFF" p-id="3525"></path><path d="M914.1 162.44h-14.72v-14.72h14.72z m-14.7 0h14.68v-14.7H899.4z" fill="" p-id="3526"></path><path d="M914.74 147.08l-16 16M898.75 163.08l-0.01-0.01 16-16 0.01 0.01-16 16z" fill="#FF0000" p-id="3527"></path><path d="M908.344 146.14l7.363 7.402-10.457 10.403-7.363-7.402z" fill="#F6F6C9" p-id="3528"></path><path d="M487.87 394.87h49.15v235.07h-49.15z" fill="#C5E3FF" p-id="3529"></path><path d="M537 642.44h-49.13a12.5 12.5 0 0 1-12.5-12.5V394.87a12.5 12.5 0 0 1 12.5-12.5H537a12.5 12.5 0 0 1 12.5 12.5v235.07a12.5 12.5 0 0 1-12.5 12.5z m-36.65-25h24.15V407.37h-24.13z" fill="#3D9FF9" p-id="3530"></path><path d="M388.05 394.87h49.15v235.07h-49.15z" fill="#C5E3FF" p-id="3531"></path><path d="M437.21 642.44h-49.16a12.5 12.5 0 0 1-12.5-12.5V394.87a12.5 12.5 0 0 1 12.5-12.5h49.15a12.5 12.5 0 0 1 12.5 12.5v235.07a12.5 12.5 0 0 1-12.49 12.5z m-36.65-25h24.15V407.37h-24.16z" fill="#3D9FF9" p-id="3532"></path><path d="M288.24 394.87h49.15v235.07h-49.15z" fill="#C5E3FF" p-id="3533"></path><path d="M337.39 642.44h-49.15a12.5 12.5 0 0 1-12.5-12.5V394.87a12.5 12.5 0 0 1 12.5-12.5h49.15a12.5 12.5 0 0 1 12.5 12.5v235.07a12.5 12.5 0 0 1-12.5 12.5z m-36.65-25h24.15V407.37h-24.15z" fill="#3D9FF9" p-id="3534"></path><path d="M735.76 512.39L535.24 275.37v474.05l200.52-237.03z" fill="#C5E3FF" p-id="3535"></path><path d="M535.24 761.93a12.5 12.5 0 0 1-12.5-12.5V275.37a12.5 12.5 0 0 1 22-8.07l200.52 237a12.5 12.5 0 0 1 0 16.15l-200.52 237a12.5 12.5 0 0 1-9.5 4.48z m12.5-452.43v405.8l171.65-202.9z" fill="#3D9FF9" p-id="3536"></path><path d="M512 57.39c-251.29 0-455 203.71-455 455s203.7 455 455 455 455-203.71 455-455-203.71-455-455-455z m0 827.85c-205.91 0-372.85-166.93-372.85-372.85S306.08 139.55 512 139.55 884.84 306.47 884.84 512.4 717.92 885.24 512 885.24z" fill="#C5E3FF" p-id="3537"></path><path d="M512 979.9A467.63 467.63 0 0 1 330 81.63a467.62 467.62 0 0 1 364 861.53 464.58 464.58 0 0 1-182 36.74z m0-910a442.63 442.63 0 0 0-172.24 850.23 442.62 442.62 0 0 0 344.47-815.47A439.73 439.73 0 0 0 512 69.89z m0 827.85a384.18 384.18 0 1 1 150-30.29 382.94 382.94 0 0 1-150 30.28zM512 152a360.34 360.34 0 1 0 254.8 105.59A358 358 0 0 0 512 152z" fill="#3D9FF9" p-id="3538"></path></svg>