<?xml version="1.0" standalone="no"?><!DOCTYPE svg PUBLIC "-//W3C//DTD SVG 1.1//EN" "http://www.w3.org/Graphics/SVG/1.1/DTD/svg11.dtd"><svg t="1629173181108" class="icon" viewBox="0 0 1025 1024" version="1.1" xmlns="http://www.w3.org/2000/svg" p-id="2468" width="16.015625" height="16" xmlns:xlink="http://www.w3.org/1999/xlink"><defs><style type="text/css"></style></defs><path d="M513.688628 560.08241m-396.79729 0a396.797291 396.797291 0 1 0 793.594581 0 396.797291 396.797291 0 1 0-793.594581 0Z" fill="#E9EAEB" p-id="2469"></path><path d="M915.615673 710.723771L566.142167 187.416637c-32.368024-55.993791-84.821562-55.993791-117.117336 0L99.551325 710.723771c-32.368024 55.993791-6.141254 101.150074 58.594793 101.150074h698.874762c64.663797 0.289 90.601566-45.156283 58.594793-101.150074z" fill="#FFFFFF" p-id="2470"></path><path d="M857.02088 828.346857H158.146118c-37.281027 0-65.603048-13.43851-79.475058-37.786778s-11.560008-55.632541 7.225005-87.928314l0.578-0.867001 348.751006-522.873633c18.640514-32.006773 44.289282-49.635786 72.250053-49.635786 28.033021 0 53.681789 17.629013 72.250053 49.635786l349.690256 523.740634c18.640514 32.295774 21.169266 63.507797 7.225005 87.928314s-42.266281 37.786778-79.619558 37.786778zM113.351085 719.249277c-12.427009 21.675016-14.811261 41.25478-6.863755 55.12679s26.371269 21.675016 51.658788 21.675016h698.874762c25.287519 0 43.350032-7.658506 51.658788-21.675016s5.563254-33.379524-6.863755-55.12679l-349.690257-523.668384c-12.643759-21.675016-28.466521-33.957525-44.506032-33.957525-16.111762 0-31.934523 12.065759-44.578283 33.957525l-0.578 0.867001z" fill="#2A5082" p-id="2471"></path><path d="M888.810903 889.831652v-32.368024a98.115572 98.115572 0 0 0 82.14831-151.725111l27.23827-17.845763a130.483596 130.483596 0 0 1-109.24208 201.938898zM591.790935 125.642842a98.115572 98.115572 0 0 0-164.29662 0l-27.09377-17.701263a130.483596 130.483596 0 0 1 218.48416 0zM130.546598 889.831652A130.483596 130.483596 0 0 1 21.304518 687.892754l27.093769 17.701263a98.115572 98.115572 0 0 0 82.148311 151.725111zM596.198189 860.71488h32.368023v32.368024h-32.368023zM531.389891 860.71488h32.368024v32.368024h-32.368024zM466.653844 860.71488h32.368023v32.368024h-32.368023zM401.845546 860.71488h32.368024v32.368024h-32.368024z" fill="#BCC0C4" p-id="2472"></path><path d="M507.691874 296.730967c34.969026 0 58.739293 26.515769 57.077542 52.670289l-14.883511 186.621887C548.224154 555.024907 541.577149 570.775418 507.691874 570.775418s-40.53228-15.750512-42.194031-34.824525l-14.883511-186.621887c-2.456502-26.082269 22.108516-52.598039 57.077542-52.598039z" fill="#A3D4FF" p-id="2473"></path><path d="M507.691874 587.03168c-36.125026 0-55.415791-16.256262-58.305793-49.635786L434.64707 350.629507a60.617794 60.617794 0 0 1 16.328512-45.878784 76.657306 76.657306 0 0 1 56.933042-24.203768A75.212305 75.212305 0 0 1 563.324415 303.450222a63.002046 63.002046 0 0 1 17.556762 46.601284l-14.88351 187.272138c-2.890002 33.451775-21.964016 49.708036-58.305793 49.708036z m0-274.116701a44.289282 44.289282 0 0 0-32.946024 13.65526 28.322021 28.322021 0 0 0-8.019756 21.313766L481.681855 534.650392c1.011501 11.921259 1.734001 19.941015 26.010019 19.941014s24.998518-7.947506 26.010019-20.013264l14.883511-186.549637a30.489522 30.489522 0 0 0-8.886757-22.108516 43.350032 43.350032 0 0 0-32.006773-13.00501z" fill="#2A5082" p-id="2474"></path><path d="M507.113873 690.710506m-56.644041 0a56.644041 56.644041 0 1 0 113.288083 0 56.644041 56.644041 0 1 0-113.288083 0Z" fill="#A3D4FF" p-id="2475"></path><path d="M506.897123 763.538559A72.900303 72.900303 0 1 1 580.014177 690.710506 72.972553 72.972553 0 0 1 506.897123 763.538559zM506.897123 650.250476a40.46003 40.46003 0 1 0 40.46003 40.46003A40.53228 40.53228 0 0 0 506.897123 650.250476z" fill="#2A5082" p-id="2476"></path></svg>